<svg width="81" height="74" viewBox="0 0 81 74" fill="none" xmlns="http://www.w3.org/2000/svg">
<path id="Vector" d="M67.6486 39.3075C67.7885 50.5046 80.8554 54.2306 81 54.2781C80.8893 54.5407 78.912 59.5879 74.116 64.8012C69.9698 69.3085 65.6663 73.7991 58.8873 73.8921C52.227 73.9834 50.0849 70.9544 42.4697 70.9544C34.8566 70.9544 32.4769 73.7991 26.1716 73.9834C19.6283 74.1677 14.6456 69.1097 10.4652 64.6188C1.92225 55.4331 -4.60615 38.6617 4.15987 27.3409C8.51457 21.7188 16.2972 18.1589 24.744 18.0676C31.1692 17.9765 37.2341 21.2827 41.162 21.2827C45.0873 21.2827 52.4573 17.3068 60.2052 17.8906C63.4483 17.9911 72.5532 18.8649 78.3995 25.2297C77.928 25.4469 67.5357 29.9467 67.6486 39.3077M55.1307 11.8134C58.6048 8.68586 60.9427 4.33222 60.3048 0C55.2974 0.149671 49.2427 2.48181 45.6508 5.60749C42.432 8.3757 39.6132 12.8061 40.3738 17.0524C45.9552 17.3736 51.6565 14.9429 55.1307 11.8134Z" fill="black"/>
</svg>
