<svg width="81" height="81" viewBox="0 0 81 81" fill="none" xmlns="http://www.w3.org/2000/svg">
<g id="flat-color-icons:google">
<path id="Vector" d="M73.5936 33.8901H70.875V33.75H40.5V47.25H59.5738C56.7911 55.1087 49.3138 60.75 40.5 60.75C29.3169 60.75 20.25 51.6831 20.25 40.5C20.25 29.3169 29.3169 20.25 40.5 20.25C45.6621 20.25 50.3584 22.1974 53.9342 25.3783L63.4804 15.8321C57.4526 10.2144 49.3898 6.75 40.5 6.75C21.8616 6.75 6.75 21.8616 6.75 40.5C6.75 59.1384 21.8616 74.25 40.5 74.25C59.1384 74.25 74.25 59.1384 74.25 40.5C74.25 38.2371 74.0171 36.0281 73.5936 33.8901Z" fill="#FFC107"/>
<path id="Vector_2" d="M10.6416 24.7911L21.7302 32.9231C24.7305 25.4947 31.9969 20.25 40.5002 20.25C45.6623 20.25 50.3586 22.1974 53.9344 25.3783L63.4806 15.8321C57.4529 10.2144 49.39 6.75 40.5002 6.75C27.5369 6.75 16.2947 14.0687 10.6416 24.7911Z" fill="#FF3D00"/>
<path id="Vector_3" d="M40.5 74.25C49.2177 74.25 57.1388 70.9138 63.1277 65.4885L52.6821 56.6494C49.1798 59.3129 44.9001 60.7535 40.5 60.75C31.7217 60.75 24.268 55.1526 21.46 47.3411L10.4541 55.8208C16.0397 66.7507 27.3831 74.25 40.5 74.25Z" fill="#4CAF50"/>
<path id="Vector_4" d="M73.5936 33.8901H70.875V33.75H40.5V47.25H59.5738C58.2427 50.9902 55.845 54.2585 52.677 56.6511L52.6821 56.6477L63.1277 65.4868C62.3886 66.1584 74.25 57.375 74.25 40.5C74.25 38.2371 74.0171 36.0281 73.5936 33.8901Z" fill="#1976D2"/>
</g>
</svg>
