<svg width="63" height="53" viewBox="0 0 63 53" fill="none" xmlns="http://www.w3.org/2000/svg">
<g id="skill-icons:instagram" clip-path="url(#clip0_664_682)">
<g id="Group">
<path id="Vector" d="M48.2344 0.13623H14.7656C6.6108 0.13623 0 5.59276 0 12.3237V39.9487C0 46.6797 6.6108 52.1362 14.7656 52.1362H48.2344C56.3892 52.1362 63 46.6797 63 39.9487V12.3237C63 5.59276 56.3892 0.13623 48.2344 0.13623Z" fill="url(#paint0_radial_664_682)"/>
<path id="Vector_2" d="M48.2344 0.13623H14.7656C6.6108 0.13623 0 5.59276 0 12.3237V39.9487C0 46.6797 6.6108 52.1362 14.7656 52.1362H48.2344C56.3892 52.1362 63 46.6797 63 39.9487V12.3237C63 5.59276 56.3892 0.13623 48.2344 0.13623Z" fill="url(#paint1_radial_664_682)"/>
<path id="Vector_3" d="M31.5022 5.82373C24.8188 5.82373 23.9799 5.8479 21.355 5.94642C18.7351 6.04554 16.9468 6.38781 15.3821 6.89014C13.7633 7.40892 12.3903 8.103 11.0225 9.23237C9.65352 10.3615 8.81262 11.4948 8.18213 12.8303C7.57181 14.1222 7.15665 15.5989 7.03877 17.7604C6.92139 19.9271 6.89062 20.6198 6.89062 26.1364C6.89062 31.6531 6.92016 32.3433 7.03927 34.5099C7.15985 36.6723 7.57452 38.1484 8.18262 39.4399C8.81163 40.7761 9.65254 41.9093 11.0208 43.0383C12.3884 44.1682 13.7613 44.8639 15.3789 45.3827C16.9448 45.8851 18.7334 46.2273 21.3528 46.3264C23.9779 46.425 24.8161 46.4491 31.4993 46.4491C38.1834 46.4491 39.0196 46.425 41.6445 46.3264C44.2644 46.2273 46.0547 45.8851 47.6206 45.3827C49.2387 44.8639 50.6097 44.1682 51.977 43.0383C53.346 41.9093 54.1866 40.7761 54.8174 39.4405C55.4223 38.1484 55.8377 36.6719 55.9607 34.5103C56.0786 32.3437 56.1094 31.6531 56.1094 26.1364C56.1094 20.6198 56.0786 19.9275 55.9607 17.7608C55.8377 15.5983 55.4223 14.1224 54.8174 12.8309C54.1866 11.4948 53.346 10.3615 51.977 9.23237C50.6082 8.10259 49.2392 7.40851 47.6191 6.89034C46.0503 6.38781 44.2609 6.04534 41.641 5.94642C39.0159 5.8479 38.1802 5.82373 31.4946 5.82373H31.5022ZM29.2945 9.48425C29.9499 9.48343 30.681 9.48425 31.5022 9.48425C38.0732 9.48425 38.8518 9.50375 41.4466 9.60104C43.846 9.69164 45.1484 10.0225 46.0158 10.3006C47.1644 10.6687 47.9831 11.1088 48.844 11.82C49.7053 12.5309 50.2383 13.2079 50.6855 14.1559C51.0224 14.8709 51.4238 15.9459 51.533 17.9263C51.6509 20.0677 51.6765 20.7108 51.6765 26.1318C51.6765 31.5528 51.6509 32.1961 51.533 34.3372C51.4233 36.3177 51.0224 37.3926 50.6855 38.1078C50.2395 39.0558 49.7053 39.7308 48.844 40.4413C47.9826 41.1522 47.1649 41.5922 46.0158 41.9605C45.1493 42.2398 43.846 42.5699 41.4466 42.6604C38.8523 42.7577 38.0732 42.7789 31.5022 42.7789C24.931 42.7789 24.1521 42.7577 21.5581 42.6604C19.1586 42.569 17.8563 42.2381 16.9881 41.9601C15.8398 41.5918 15.0193 41.1518 14.158 40.4409C13.2967 39.73 12.7637 39.0546 12.3165 38.1062C11.9796 37.391 11.5782 36.316 11.469 34.3356C11.3511 32.1942 11.3274 31.5511 11.3274 26.1267C11.3274 20.7024 11.3511 20.0626 11.469 17.9212C11.5787 15.9408 11.9796 14.8658 12.3165 14.1498C12.7627 13.2018 13.2967 12.5248 14.1583 11.8139C15.0196 11.1029 15.8398 10.6628 16.9883 10.2939C17.8558 10.0146 19.1586 9.68453 21.5581 9.59353C23.8283 9.50882 24.7081 9.48343 29.2945 9.47917V9.48425ZM44.6387 12.8569C43.0083 12.8569 41.6856 13.9477 41.6856 15.2936C41.6856 16.6393 43.0083 17.7311 44.6387 17.7311C46.2691 17.7311 47.5918 16.6393 47.5918 15.2936C47.5918 13.9479 46.2691 12.8561 44.6387 12.8561V12.8569ZM31.5022 15.7049C24.523 15.7049 18.8643 20.3756 18.8643 26.1364C18.8643 31.8973 24.523 36.5657 31.5022 36.5657C38.4817 36.5657 44.1384 31.8973 44.1384 26.1364C44.1384 20.3758 38.4812 15.7049 31.5017 15.7049H31.5022ZM31.5022 19.3655C36.0326 19.3655 39.7055 22.3967 39.7055 26.1364C39.7055 29.8758 36.0326 32.9074 31.5022 32.9074C26.9716 32.9074 23.2992 29.8758 23.2992 26.1364C23.2992 22.3967 26.9716 19.3655 31.5022 19.3655Z" fill="white"/>
</g>
</g>
<defs>
<radialGradient id="paint0_radial_664_682" cx="0" cy="0" r="1" gradientUnits="userSpaceOnUse" gradientTransform="translate(16.7344 56.1412) rotate(-90) scale(51.5359 58.072)">
<stop stop-color="#FFDD55"/>
<stop offset="0.1" stop-color="#FFDD55"/>
<stop offset="0.5" stop-color="#FF543E"/>
<stop offset="1" stop-color="#C837AB"/>
</radialGradient>
<radialGradient id="paint1_radial_664_682" cx="0" cy="0" r="1" gradientUnits="userSpaceOnUse" gradientTransform="translate(-10.5527 3.88206) rotate(76.3685) scale(23.2435 114.023)">
<stop stop-color="#3771C8"/>
<stop offset="0.128" stop-color="#3771C8"/>
<stop offset="1" stop-color="#6600FF" stop-opacity="0"/>
</radialGradient>
<clipPath id="clip0_664_682">
<rect width="63" height="52" fill="white" transform="translate(0 0.13623)"/>
</clipPath>
</defs>
</svg>
