<svg width="63" height="53" viewBox="0 0 63 53" fill="none" xmlns="http://www.w3.org/2000/svg">
<g id="skill-icons:linkedin" clip-path="url(#clip0_664_687)">
<g id="Group">
<path id="Vector" d="M48.2344 0.13623H14.7656C6.6108 0.13623 0 5.59276 0 12.3237V39.9487C0 46.6797 6.6108 52.1362 14.7656 52.1362H48.2344C56.3892 52.1362 63 46.6797 63 39.9487V12.3237C63 5.59276 56.3892 0.13623 48.2344 0.13623Z" fill="white"/>
<path id="Vector_2" d="M48.2344 0.13623H14.7656C6.6108 0.13623 0 5.59276 0 12.3237V39.9487C0 46.6797 6.6108 52.1362 14.7656 52.1362H48.2344C56.3892 52.1362 63 46.6797 63 39.9487V12.3237C63 5.59276 56.3892 0.13623 48.2344 0.13623Z" fill="#0A66C2"/>
<path id="Vector_3" d="M45.4572 44.3535H52.6604C52.9214 44.3535 53.1717 44.2679 53.3563 44.1156C53.5409 43.9633 53.6447 43.7567 53.6447 43.5412L53.6484 30.9795C53.6484 24.4139 51.9344 19.3673 42.6387 19.3673C39.105 19.2588 35.7727 20.7624 33.9745 23.273C33.9657 23.2852 33.9523 23.2947 33.9364 23.3C33.9204 23.3053 33.9028 23.3062 33.8862 23.3025C33.8696 23.2988 33.855 23.2907 33.8445 23.2795C33.834 23.2682 33.8282 23.2545 33.828 23.2403V20.7859C33.828 20.5704 33.7243 20.3638 33.5397 20.2114C33.3551 20.059 33.1047 19.9734 32.8437 19.9734H26.0079C25.7469 19.9734 25.4965 20.059 25.3119 20.2114C25.1273 20.3638 25.0236 20.5704 25.0236 20.7859V43.54C25.0236 43.7555 25.1273 43.9621 25.3119 44.1145C25.4965 44.2669 25.7469 44.3525 26.0079 44.3525H33.2106C33.4717 44.3525 33.7221 44.2669 33.9067 44.1145C34.0913 43.9621 34.195 43.7555 34.195 43.54V32.2923C34.195 29.112 34.9259 26.032 39.7028 26.032C44.4118 26.032 44.4728 29.6712 44.4728 32.4983V43.541C44.4728 43.7565 44.5765 43.9631 44.7611 44.1155C44.9458 44.2679 45.1961 44.3535 45.4572 44.3535ZM9.35156 12.248C9.35156 14.658 11.7552 16.6409 14.6751 16.6409C17.5942 16.6407 19.9963 14.6566 19.9963 12.2472C19.9959 9.83768 17.5935 7.85498 14.6741 7.85498C11.7539 7.85498 9.35156 9.83809 9.35156 12.248ZM11.0641 44.3535H18.2764C18.5375 44.3535 18.7879 44.2679 18.9725 44.1155C19.1571 43.9631 19.2608 43.7565 19.2608 43.541V20.7859C19.2608 20.5704 19.1571 20.3638 18.9725 20.2114C18.7879 20.059 18.5375 19.9734 18.2764 19.9734H11.0641C10.8031 19.9734 10.5527 20.059 10.3681 20.2114C10.1835 20.3638 10.0798 20.5704 10.0798 20.7859V43.541C10.0798 43.7565 10.1835 43.9631 10.3681 44.1155C10.5527 44.2679 10.8031 44.3535 11.0641 44.3535Z" fill="white"/>
</g>
</g>
<defs>
<clipPath id="clip0_664_687">
<rect width="63" height="52" fill="white" transform="translate(0 0.13623)"/>
</clipPath>
</defs>
</svg>
