<svg width="51" height="55" viewBox="0 0 51 55" fill="none" xmlns="http://www.w3.org/2000/svg">
<g id="mail_FILL0_wght400_GRAD0_opsz48 1">
<path id="Vector" d="M7.4375 45.8334C6.5875 45.8334 5.84375 45.4897 5.20625 44.8022C4.56875 44.1147 4.25 43.3126 4.25 42.3959V12.6042C4.25 11.6876 4.56875 10.8855 5.20625 10.198C5.84375 9.5105 6.5875 9.16675 7.4375 9.16675H43.5625C44.4125 9.16675 45.1562 9.5105 45.7938 10.198C46.4313 10.8855 46.75 11.6876 46.75 12.6042V42.3959C46.75 43.3126 46.4313 44.1147 45.7938 44.8022C45.1562 45.4897 44.4125 45.8334 43.5625 45.8334H7.4375ZM25.5 28.5313L7.4375 15.7553V42.3959H43.5625V15.7553L25.5 28.5313ZM25.5 25.0938L43.35 12.6042H7.70312L25.5 25.0938ZM7.4375 15.7553V12.6042V42.3959V15.7553Z" fill="black"/>
</g>
</svg>
