<svg width="65" height="67" viewBox="0 0 65 67" fill="none" xmlns="http://www.w3.org/2000/svg">
<g id="wpf:faq" clip-path="url(#clip0_167_770)">
<path id="Vector" d="M32.5 0C28.25 0 25 3.35 25 7.73077V23.1923C25 27.5731 28.25 30.9231 32.5 30.9231H47.5L57.5 41.2308V30.9231C61.75 30.9231 65 27.5731 65 23.1923V7.73077C65 3.35 61.75 0 57.5 0H32.5ZM42.97 7.73077H47.265L51.485 23.1923H47.735L46.7175 19.3269H42.9675L42.0325 23.1923H38.75L42.97 7.73077ZM45 10.3077C44.75 11.3385 44.47 12.596 44.2175 13.3691L43.5175 16.75H46.485L45.78 13.3665C45.2825 12.596 45 11.3385 45 10.3077ZM7.5 25.7692C3.25 25.7692 0 29.1192 0 33.5V48.9615C0 53.3423 3.25 56.6923 7.5 56.6923V67L17.5 56.6923H32.5C36.75 56.6923 40 53.3423 40 48.9615V33.5H32.5C27.75 33.5 23.985 30.15 22.735 25.7692H7.5ZM18.985 33.2578C23.235 33.2578 25.235 36.8655 25.235 40.9885C25.235 44.5962 24.0325 46.8845 22.0325 47.9153C23.0325 48.4307 24.2175 48.7038 25.4675 48.9615L24.5325 51.5385C22.7825 51.0231 20.9675 50.2191 19.2175 49.4434C18.9675 49.1857 18.53 49.2038 18.28 49.2038C15.28 48.9461 12.5 46.3846 12.5 41.2308C12.5 36.85 14.985 33.2578 18.985 33.2578ZM18.985 36.0769C16.985 36.0769 16.015 38.3962 16.015 41.2308C16.015 44.3231 16.985 46.3846 18.985 46.3846C20.985 46.3846 22.03 44.0654 22.03 41.2308C22.03 38.3962 20.985 36.0769 18.985 36.0769Z" fill="black"/>
</g>
<defs>
<clipPath id="clip0_167_770">
<rect width="65" height="67" fill="white"/>
</clipPath>
</defs>
</svg>
