<svg width="63" height="53" viewBox="0 0 63 53" fill="none" xmlns="http://www.w3.org/2000/svg">
<path id="Vector" d="M19.1449 40.3023C13.9983 40.2057 9.60533 36.9275 7.81199 32.313C9.55625 32.5374 11.3298 32.4126 13.0316 31.9425L12.9984 30.9706C7.5273 29.8547 3.34673 25.0802 3.04772 19.2572C4.71094 20.0597 6.52273 20.5063 8.37 20.5651L10.093 20.6199L8.66672 19.6516C5.33211 17.3879 3.13591 13.5231 3.13591 9.13874C3.13591 7.08549 3.61805 5.14735 4.47284 3.43466C10.926 11.1551 20.3745 16.2128 31.0011 16.7545L31.6616 16.7882L31.5139 16.1435C31.3021 15.2195 31.1918 14.2552 31.1918 13.2633C31.1918 6.28275 36.7626 0.63623 43.6174 0.63623C47.189 0.63623 50.4169 2.16734 52.6847 4.62118L52.875 4.8271L53.15 4.7721C55.6479 4.2724 58.0589 3.40876 60.3088 2.2101C59.2639 4.60021 57.5069 6.59838 55.3163 7.93182L55.6362 8.85532C57.6756 8.60949 59.6777 8.12267 61.602 7.40614C60.0824 9.41736 58.2816 11.196 56.2545 12.6843L56.039 12.8426L56.0509 13.1096C56.0756 13.6649 56.0878 14.2236 56.0878 14.7857C56.0878 31.9256 43.2471 51.6362 19.813 51.6362C13.3536 51.6362 7.2955 49.9106 2.0428 46.9014C2.38798 46.9149 2.73485 46.9217 3.08331 46.9217C9.25648 46.9217 14.9386 44.7816 19.4469 41.1935L20.5337 40.3284L19.1449 40.3023Z" fill="#55ACEE" stroke="black"/>
</svg>
