<svg width="133" height="81" viewBox="0 0 133 81" fill="none" xmlns="http://www.w3.org/2000/svg">
<g id="logos:youtube-icon" clip-path="url(#clip0_176_799)">
<path id="Vector" d="M130.063 12.6338C129.3 10.1919 127.812 7.96565 125.747 6.17683C123.681 4.388 121.111 3.09898 118.292 2.4381C107.971 0 66.4326 0 66.4326 0C66.4326 0 24.8919 0.0737998 14.5709 2.5119C11.7516 3.17281 9.18148 4.46191 7.11635 6.25082C5.05121 8.03972 3.56316 10.266 2.80037 12.708C-0.32149 28.5921 -1.53252 52.7958 2.8861 68.0445C3.64896 70.4864 5.13705 72.7126 7.20218 74.5014C9.26731 76.2902 11.8374 77.5793 14.6566 78.2402C24.9776 80.6783 66.5173 80.6783 66.5173 80.6783C66.5173 80.6783 108.056 80.6783 118.377 78.2402C121.196 77.5793 123.766 76.2904 125.832 74.5015C127.897 72.7127 129.385 70.4865 130.148 68.0445C133.441 52.1379 134.455 27.9491 130.063 12.6338Z" fill="#FF0000"/>
<path id="Vector_2" d="M53.2109 57.627L87.6704 40.3389L53.2109 23.0508V57.627Z" fill="white"/>
</g>
<defs>
<clipPath id="clip0_176_799">
<rect width="133" height="81" fill="white"/>
</clipPath>
</defs>
</svg>
